<svg width="32" height="36" viewBox="0 0 32 36" fill="none" xmlns="http://www.w3.org/2000/svg">
<path opacity="0.955" fill-rule="evenodd" clip-rule="evenodd" d="M13.4704 0.618265C14.0059 0.562428 14.5417 0.689329 15.0779 0.998968C15.7224 1.446 16.3428 1.92543 16.9391 2.43718C17.1222 2.59767 17.1787 2.781 17.1083 2.98709C13.4762 5.48087 9.83836 7.97659 6.19477 10.4743C5.57955 10.8358 4.98734 11.2307 4.41815 11.6587C4.12619 11.7219 4.09802 11.6654 4.33355 11.4895C4.30538 11.4613 4.27712 11.433 4.24895 11.4049C7.028 8.03328 9.77753 4.6352 12.4975 1.21047C12.8229 0.999138 13.1473 0.801764 13.4704 0.618265Z" fill="#FAD61A"/>
<path opacity="0.966" fill-rule="evenodd" clip-rule="evenodd" d="M19.4775 2.47994C20.3922 2.33865 21.21 2.55015 21.931 3.11444C22.9502 4.24649 23.8385 5.4732 24.5959 6.79458C24.6373 6.90397 24.6515 7.01683 24.6382 7.13298C17.4344 9.40883 10.2433 11.7354 3.06497 14.1126C2.9428 14.1785 2.83003 14.1642 2.72656 14.0703C2.93984 13.7868 3.19364 13.5467 3.48797 13.3511C8.58737 9.85908 13.6634 6.33401 18.7161 2.77604C18.9884 2.6999 19.2422 2.60117 19.4775 2.47994Z" fill="#E16635"/>
<path opacity="0.967" fill-rule="evenodd" clip-rule="evenodd" d="M25.1473 7.64061C26.9218 7.34256 28.1485 8.01937 28.8275 9.67103C29.4487 11.5206 30.0268 13.3818 30.5618 15.2547C22.1294 15.2623 13.6975 15.2488 5.26612 15.2124C3.7318 15.5059 2.81532 16.4222 2.51659 17.9619C2.50246 20.5566 2.46016 23.1513 2.38969 25.7452C1.6128 23.4593 0.837265 21.1751 0.063167 18.8925C-0.20358 17.2969 0.374498 16.1269 1.79748 15.3816C9.59675 12.8053 17.38 10.225 25.1473 7.64061Z" fill="#1F9F7D"/>
<path opacity="0.968" fill-rule="evenodd" clip-rule="evenodd" d="M5.68916 16.0152C13.6699 16.0008 21.6505 16.0152 29.6312 16.0575C30.9911 16.346 31.7666 17.1776 31.9577 18.5532C32.0141 21.9093 32.0141 25.2646 31.9577 28.6207C31.739 29.9109 30.9917 30.7146 29.7158 31.0318C23.3423 31.0462 16.9691 31.0885 10.596 31.1587C10.0113 32.5673 9.47555 33.9632 8.98859 35.3465C8.90839 35.3871 8.82379 35.4015 8.73479 35.3888C8.73479 32.2306 8.73479 29.0716 8.73479 25.9135C10.027 26.7603 11.3524 26.8026 12.711 26.0404C14.0505 24.9879 14.5158 23.6199 14.1069 21.9372C13.4469 20.1496 12.1637 19.318 10.2576 19.4415C8.64528 19.7004 7.61594 20.6166 7.16967 22.191C7.08719 22.8086 7.04489 23.4287 7.04277 24.0523C7.12966 26.3356 7.14378 28.6199 7.08507 30.9049C5.49999 31.3533 4.31558 30.8457 3.53184 29.3821C3.45722 29.1038 3.40087 28.822 3.36263 28.5361C3.30621 25.2087 3.30621 21.8805 3.36263 18.5532C3.56686 17.1784 4.3424 16.3324 5.68916 16.0152ZM20.9173 18.5532C22.3916 18.4221 23.7452 18.7461 24.9781 19.5261C24.7623 19.8874 24.579 20.2681 24.4282 20.6682C23.1284 19.7765 21.7325 19.565 20.2405 20.0337C19.5098 20.5396 19.3829 21.1741 19.8598 21.9372C20.0353 22.1022 20.2186 22.2579 20.4097 22.4025C21.6704 22.8323 22.9113 23.3111 24.1321 23.8408C25.2327 24.8382 25.4442 26.0091 24.7666 27.3517C23.9156 28.3474 22.8299 28.7992 21.5095 28.7053C20.3072 28.7239 19.2074 28.3999 18.2101 27.7324C17.9552 27.5903 17.7578 27.3931 17.6179 27.1402C17.7682 26.7688 17.9515 26.4168 18.1678 26.0827C19.6038 27.4744 21.2535 27.8263 23.1169 27.1402C23.839 26.4608 23.8954 25.7282 23.2861 24.9406C22.9894 24.7502 22.6793 24.581 22.3555 24.433C21.309 24.1495 20.2938 23.7832 19.3099 23.3331C18.2766 22.6064 17.924 21.6335 18.2524 20.4144C18.7838 19.2816 19.6722 18.6615 20.9173 18.5532ZM25.9088 19.8222C26.9087 19.7359 27.3458 20.1877 27.2201 21.1758C26.9389 21.7181 26.5019 21.9009 25.9088 21.7257C25.1232 21.0912 25.1232 20.4567 25.9088 19.8222ZM15.5029 24.3907C16.5451 24.3467 16.954 24.8255 16.7296 25.8289C16.4358 26.2789 16.027 26.4338 15.5029 26.2942C14.6094 25.6605 14.6094 25.026 15.5029 24.3907Z" fill="white"/>
<path opacity="0.937" fill-rule="evenodd" clip-rule="evenodd" d="M10.1713 21.1762C11.701 21.0713 12.5047 21.7769 12.5824 23.2912C12.2442 24.5247 11.4405 25.0746 10.1713 24.9409C8.84701 24.3403 8.46631 23.3674 9.02916 22.0222C9.33194 21.6187 9.71265 21.3369 10.1713 21.1762Z" fill="white"/>
</svg>
