<svg width="121" height="120" viewBox="0 0 121 120" fill="none" xmlns="http://www.w3.org/2000/svg">
<g clip-path="url(#clip0_1755_5576)">
<path d="M10.9652 28.6079H21.098C23.4356 28.6079 25.5944 29.3747 27.338 30.6707C28.8968 29.7947 30.65 29.2235 32.5172 29.0399C33.5564 23.2607 38.6108 18.8747 44.6912 18.8747H99.6224C103.038 18.8747 106.13 20.2595 108.368 22.4975C109.983 24.1127 111.153 26.1731 111.68 28.4783C116.678 27.6887 120.5 23.3615 120.5 18.1427C120.5 15.2531 119.329 12.6371 117.435 10.7435C115.54 8.84871 112.926 7.67871 110.036 7.67871H10.9652C5.186 7.67751 0.5 12.3635 0.5 18.1427C0.5 21.0323 1.6712 23.6483 3.5648 25.5419C5.4596 27.4367 8.0744 28.6067 10.964 28.6067L10.9652 28.6079ZM27.056 22.5731C27.7004 22.5731 28.2224 23.0951 28.2224 23.7395C28.2224 24.3839 27.7004 24.9071 27.056 24.9071C26.4116 24.9071 25.8884 24.3839 25.8884 23.7395C25.8884 23.0951 26.4104 22.5731 27.056 22.5731Z" fill="url(#paint0_linear_1755_5576)"/>
<path d="M110.035 91.394H108.286C105.949 91.394 103.79 90.6272 102.049 89.3312L108.126 96.1184C108.846 96.9224 108.777 98.1572 107.973 98.8772L106.365 100.317C105.561 101.037 104.326 100.969 103.606 100.165L94.4552 89.9444L93.074 91.1804L90.8672 88.7168C89.6756 89.1236 88.4372 89.342 87.1952 89.3768C86.6864 94.4984 82.7852 98.6192 77.7716 99.4616C77.1536 99.5648 76.5176 99.62 75.8708 99.62H23.1344C17.4476 99.62 12.5456 96.2588 10.3064 91.4144C4.8344 91.754 0.5 96.2984 0.5 101.857C0.5 104.746 1.6712 107.362 3.5648 109.256C5.4596 111.151 8.0744 112.321 10.964 112.321H110.034C115.813 112.321 120.499 107.635 120.499 101.856C120.499 98.966 119.328 96.35 117.434 94.4576C115.539 92.5628 112.924 91.3928 110.035 91.3928V91.394ZM89.06 101.125C88.0616 101.125 87.2516 100.315 87.2516 99.3176C87.2516 98.3204 88.0616 97.5092 89.06 97.5092C90.0584 97.5092 90.8672 98.3192 90.8672 99.3176C90.8672 100.316 90.0584 101.125 89.06 101.125Z" fill="url(#paint1_linear_1755_5576)"/>
<path d="M9.0092 70.2809V63.5369H32.3204V55.4297C28.2692 54.9701 24.7712 52.6865 22.6676 49.4189C22.1552 49.4957 21.6308 49.5365 21.098 49.5365H10.9652C5.186 49.5365 0.5 54.2213 0.5 60.0017C0.5 62.8913 1.6712 65.5073 3.5648 67.3997C5.0204 68.8553 6.9032 69.8837 9.0092 70.2821V70.2809ZM15.8696 53.0021C16.85 53.0021 17.6444 53.7977 17.6444 54.7781C17.6444 55.7585 16.85 56.5529 15.8696 56.5529C14.8892 56.5529 14.0936 55.7585 14.0936 54.7781C14.0936 53.7977 14.8892 53.0021 15.8696 53.0021Z" fill="url(#paint2_linear_1755_5576)"/>
<path d="M99.043 85.8379L98.9746 85.8991L99.2458 86.2027C99.1762 86.0827 99.1078 85.9615 99.043 85.8379Z" fill="url(#paint3_linear_1755_5576)"/>
<path d="M111.992 49.7197V63.5365H87.2539V64.4065C90.5407 64.5145 93.7795 65.9149 96.1459 68.5585C97.9771 70.6045 99.0091 73.0873 99.2659 75.6253C101.085 72.5377 104.445 70.4641 108.288 70.4641H110.036C115.815 70.4641 120.501 65.7793 120.501 60.0013C120.501 57.1117 119.33 54.4945 117.436 52.6021C115.981 51.1465 114.098 50.1181 111.992 49.7197ZM103.414 70.1749C102.602 70.1749 101.943 69.5161 101.943 68.7037C101.943 67.8913 102.602 67.2325 103.414 67.2325C104.227 67.2325 104.886 67.8913 104.886 68.7037C104.886 69.5161 104.227 70.1749 103.414 70.1749Z" fill="url(#paint4_linear_1755_5576)"/>
<path d="M99.625 18.876C92.7946 18.876 87.2566 24.4152 87.2566 31.2444V64.4076C84.1534 64.3032 81.007 65.3508 78.511 67.5852C73.3702 72.1884 72.9334 80.0844 77.5354 85.224C80.0878 88.074 83.653 89.4792 87.199 89.3784C86.6902 94.5 82.789 98.6208 77.7754 99.4632C77.1574 99.5664 76.5214 99.6216 75.8746 99.6216H70.4098C62.6086 99.6216 56.2858 93.2976 56.2858 85.4976V63.5376H32.3242V55.4304C32.821 55.488 33.325 55.5168 33.8362 55.5168C35.9194 55.5168 37.8898 55.038 39.643 54.1812C44.0626 52.0284 47.1082 47.4924 47.1082 42.2448C47.1082 34.9164 41.167 28.9752 33.8362 28.9752C33.3922 28.9752 32.953 28.9968 32.5198 29.04C33.5602 23.262 38.6146 18.876 44.695 18.876H99.625Z" fill="url(#paint5_linear_1755_5576)"/>
<path d="M111.993 31.2444V63.5364H87.2549V31.2444C87.2549 24.414 92.7929 18.876 99.6245 18.876C103.04 18.876 106.132 20.2608 108.37 22.4988C110.608 24.7368 111.993 27.8292 111.993 31.2444Z" fill="url(#paint6_linear_1755_5576)"/>
<path d="M70.4081 99.6221H23.1377C15.3365 99.6221 9.01367 93.2981 9.01367 85.4981V63.5381H56.2853V85.4981C56.2853 93.2993 62.6093 99.6221 70.4093 99.6221H70.4081Z" fill="url(#paint7_linear_1755_5576)"/>
<path d="M47.1049 42.2452C47.1049 47.4928 44.0605 52.0288 39.6409 54.1804C37.8877 55.0372 35.9173 55.516 33.8341 55.516C26.5057 55.516 20.5645 49.5748 20.5645 42.2452C20.5645 39.0148 21.7189 36.052 23.6401 33.7504C26.0725 30.832 29.7361 28.9756 33.8341 28.9756C41.1637 28.9756 47.1049 34.9168 47.1049 42.2452Z" fill="url(#paint8_linear_1755_5576)"/>
<path d="M39.9361 47.0881L38.6749 48.3481C38.2549 48.7681 37.5733 48.7681 37.1545 48.3481L33.8341 45.0277L30.5125 48.3481C30.0937 48.7681 29.4121 48.7681 28.9921 48.3481L27.7309 47.0881C27.3097 46.6669 27.3097 45.9865 27.7309 45.5665L31.0513 42.2473L27.7309 38.9257C27.3109 38.5057 27.3097 37.8253 27.7309 37.4053L28.9921 36.1441C29.4121 35.7241 30.0937 35.7241 30.5125 36.1441L33.8341 39.4657L37.1545 36.1441C37.5745 35.7241 38.2561 35.7241 38.6749 36.1441L39.9361 37.4053C40.3573 37.8265 40.3561 38.5069 39.9361 38.9257L36.6157 42.2473L39.9361 45.5665C40.3573 45.9865 40.3573 46.6681 39.9361 47.0881Z" fill="url(#paint9_linear_1755_5576)"/>
<g opacity="0.5">
<path d="M79.2191 35.6692H53.5715C53.3723 35.6692 53.2115 35.5084 53.2115 35.3092C53.2115 35.11 53.3723 34.9492 53.5715 34.9492H79.2191C79.4183 34.9492 79.5791 35.11 79.5791 35.3092C79.5791 35.5084 79.4183 35.6692 79.2191 35.6692ZM79.2191 41.5672H53.5715C53.3723 41.5672 53.2115 41.4064 53.2115 41.2072C53.2115 41.008 53.3723 40.8472 53.5715 40.8472H79.2191C79.4183 40.8472 79.5791 41.008 79.5791 41.2072C79.5791 41.4064 79.4183 41.5672 79.2191 41.5672ZM79.2191 47.4652H53.5715C53.3723 47.4652 53.2115 47.3044 53.2115 47.1052C53.2115 46.906 53.3723 46.7452 53.5715 46.7452H79.2191C79.4183 46.7452 79.5791 46.906 79.5791 47.1052C79.5791 47.3044 79.4183 47.4652 79.2191 47.4652ZM79.2191 53.3632H53.5715C53.3723 53.3632 53.2115 53.2024 53.2115 53.0032C53.2115 52.804 53.3723 52.6432 53.5715 52.6432H79.2191C79.4183 52.6432 79.5791 52.804 79.5791 53.0032C79.5791 53.2024 79.4183 53.3632 79.2191 53.3632ZM79.2191 59.2624H37.7291C37.5299 59.2624 37.3691 59.1016 37.3691 58.9024C37.3691 58.7032 37.5299 58.5424 37.7291 58.5424H79.2191C79.4183 58.5424 79.5791 58.7032 79.5791 58.9024C79.5791 59.1016 79.4183 59.2624 79.2191 59.2624ZM72.3143 70.5364H56.6879C56.4887 70.5364 56.3279 70.3756 56.3279 70.1764C56.3279 69.9772 56.4887 69.8164 56.6879 69.8164H72.3143C72.5135 69.8164 72.6743 69.9772 72.6743 70.1764C72.6743 70.3756 72.5135 70.5364 72.3143 70.5364ZM72.3143 76.9564H56.6879C56.4887 76.9564 56.3279 76.7956 56.3279 76.5964C56.3279 76.3972 56.4887 76.2364 56.6879 76.2364H72.3143C72.5135 76.2364 72.6743 76.3972 72.6743 76.5964C72.6743 76.7956 72.5135 76.9564 72.3143 76.9564ZM72.3143 83.3776H56.6879C56.4887 83.3776 56.3279 83.2168 56.3279 83.0176C56.3279 82.8184 56.4887 82.6576 56.6879 82.6576H72.3143C72.5135 82.6576 72.6743 82.8184 72.6743 83.0176C72.6743 83.2168 72.5135 83.3776 72.3143 83.3776Z" fill="#CCD2D6"/>
</g>
<path d="M45.1331 91.2073H14.0963C13.8971 91.2073 13.7363 91.0465 13.7363 90.8473C13.7363 90.6481 13.8971 90.4873 14.0963 90.4873H45.1331C45.3323 90.4873 45.4931 90.6481 45.4931 90.8473C45.4931 91.0465 45.3323 91.2073 45.1331 91.2073Z" fill="#CCD2D6"/>
<path d="M100.357 84.6636L93.0738 91.1832L90.8682 88.7196C92.4126 88.1952 93.879 87.3564 95.1726 86.1996C96.465 85.0428 97.4586 83.6784 98.1522 82.2012L100.357 84.6636Z" fill="url(#paint10_linear_1755_5576)"/>
<path d="M94.4569 89.9455L98.9762 85.8991L108.128 96.1204C108.847 96.9232 108.779 98.1594 107.976 98.879L106.366 100.32C105.564 101.039 104.327 100.971 103.608 100.168L94.4561 89.9463L94.4569 89.9455Z" fill="url(#paint11_linear_1755_5576)"/>
<path d="M96.1454 68.5593C93.779 65.9157 90.5402 64.5165 87.2522 64.4073C84.149 64.3041 81.0026 65.3505 78.5066 67.5861C73.367 72.1893 72.929 80.0841 77.5322 85.2249C80.0846 88.0749 83.6498 89.4789 87.1958 89.3793C88.4378 89.3445 89.6762 89.1261 90.8666 88.7193C92.4122 88.1949 93.8786 87.3573 95.171 86.1993C96.4634 85.0425 97.457 83.6781 98.1506 82.2009C100.211 77.8017 99.5894 72.4077 96.1442 68.5593H96.1454ZM93.563 81.7389C93.221 82.2153 92.8214 82.6605 92.3678 83.0673C91.913 83.4753 91.4258 83.8233 90.9146 84.1125C87.599 85.9881 83.3102 85.3773 80.6654 82.4229C77.6102 79.0125 77.9006 73.7721 81.3098 70.7193C84.7202 67.6653 89.9606 67.9545 93.0134 71.3649C95.6594 74.3193 95.795 78.6513 93.563 81.7389Z" fill="url(#paint12_linear_1755_5576)"/>
<path d="M93.564 81.7381C93.222 82.2145 92.8224 82.6597 92.3688 83.0665C91.914 83.4745 91.4268 83.8225 90.9156 84.1117C87.6 85.9873 83.3112 85.3765 80.6664 82.4221C77.6112 79.0117 77.9016 73.7713 81.3108 70.7185C84.7212 67.6645 89.9616 67.9537 93.0144 71.3641C95.6604 74.3185 95.796 78.6505 93.564 81.7381Z" fill="url(#paint13_linear_1755_5576)"/>
<path opacity="0.5" d="M15.8695 56.5535C16.8497 56.5535 17.6443 55.7589 17.6443 54.7787C17.6443 53.7985 16.8497 53.0039 15.8695 53.0039C14.8893 53.0039 14.0947 53.7985 14.0947 54.7787C14.0947 55.7589 14.8893 56.5535 15.8695 56.5535Z" fill="url(#paint14_linear_1755_5576)"/>
<path d="M103.412 70.1758C104.224 70.1758 104.883 69.5171 104.883 68.7046C104.883 67.8921 104.224 67.2334 103.412 67.2334C102.599 67.2334 101.94 67.8921 101.94 68.7046C101.94 69.5171 102.599 70.1758 103.412 70.1758Z" fill="url(#paint15_linear_1755_5576)"/>
<path d="M103.034 81.2469C103.637 81.2469 104.127 80.7575 104.127 80.1537C104.127 79.55 103.637 79.0605 103.034 79.0605C102.43 79.0605 101.94 79.55 101.94 80.1537C101.94 80.7575 102.43 81.2469 103.034 81.2469Z" fill="url(#paint16_linear_1755_5576)"/>
<path d="M89.0601 101.126C90.0582 101.126 90.8673 100.317 90.8673 99.3189C90.8673 98.3208 90.0582 97.5117 89.0601 97.5117C88.062 97.5117 87.2529 98.3208 87.2529 99.3189C87.2529 100.317 88.062 101.126 89.0601 101.126Z" fill="url(#paint17_linear_1755_5576)"/>
<path d="M27.0551 24.907C27.6993 24.907 28.2215 24.3848 28.2215 23.7406C28.2215 23.0964 27.6993 22.5742 27.0551 22.5742C26.4109 22.5742 25.8887 23.0964 25.8887 23.7406C25.8887 24.3848 26.4109 24.907 27.0551 24.907Z" fill="url(#paint18_linear_1755_5576)"/>
</g>
<defs>
<linearGradient id="paint0_linear_1755_5576" x1="60.5" y1="12.7739" x2="60.5" y2="111.306" gradientUnits="userSpaceOnUse">
<stop stop-color="#CCD2D6" stop-opacity="0.1"/>
<stop offset="1" stop-color="#CCD2D6" stop-opacity="0.25"/>
</linearGradient>
<linearGradient id="paint1_linear_1755_5576" x1="60.5" y1="-0.000413444" x2="60.5" y2="111.306" gradientUnits="userSpaceOnUse">
<stop stop-color="#CCD2D6" stop-opacity="0.1"/>
<stop offset="1" stop-color="#CCD2D6" stop-opacity="0.25"/>
</linearGradient>
<linearGradient id="paint2_linear_1755_5576" x1="16.4096" y1="12.7745" x2="16.4096" y2="111.307" gradientUnits="userSpaceOnUse">
<stop stop-color="#CCD2D6" stop-opacity="0.1"/>
<stop offset="1" stop-color="#CCD2D6" stop-opacity="0.25"/>
</linearGradient>
<linearGradient id="paint3_linear_1755_5576" x1="99.1102" y1="12.7752" x2="99.1102" y2="111.307" gradientUnits="userSpaceOnUse">
<stop stop-color="#CCD2D6" stop-opacity="0.1"/>
<stop offset="1" stop-color="#CCD2D6" stop-opacity="0.25"/>
</linearGradient>
<linearGradient id="paint4_linear_1755_5576" x1="103.878" y1="12.7741" x2="103.878" y2="111.306" gradientUnits="userSpaceOnUse">
<stop stop-color="#CCD2D6" stop-opacity="0.1"/>
<stop offset="1" stop-color="#CCD2D6" stop-opacity="0.25"/>
</linearGradient>
<linearGradient id="paint5_linear_1755_5576" x1="67.3342" y1="37.8492" x2="47.113" y2="96.3072" gradientUnits="userSpaceOnUse">
<stop stop-color="#CCD2D6" stop-opacity="0.25"/>
<stop offset="1" stop-color="#CCD2D6" stop-opacity="0.5"/>
</linearGradient>
<linearGradient id="paint6_linear_1755_5576" x1="103.42" y1="52.278" x2="71.2493" y2="-3.23882" gradientUnits="userSpaceOnUse">
<stop stop-color="#CCD2D6" stop-opacity="0.4"/>
<stop offset="1" stop-color="#CCD2D6" stop-opacity="0.9"/>
</linearGradient>
<linearGradient id="paint7_linear_1755_5576" x1="9.01247" y1="81.5801" x2="70.4081" y2="81.5801" gradientUnits="userSpaceOnUse">
<stop stop-color="#CCD2D6" stop-opacity="0.4"/>
<stop offset="1" stop-color="#CCD2D6" stop-opacity="0.9"/>
</linearGradient>
<linearGradient id="paint8_linear_1755_5576" x1="28.9213" y1="26.7856" x2="38.9389" y2="58.312" gradientUnits="userSpaceOnUse">
<stop stop-color="#CCD2D6" stop-opacity="0.25"/>
<stop offset="1" stop-color="#CCD2D6" stop-opacity="0.5"/>
</linearGradient>
<linearGradient id="paint9_linear_1755_5576" x1="33.4633" y1="34.9465" x2="34.1065" y2="47.6305" gradientUnits="userSpaceOnUse">
<stop stop-color="#CCD2D6" stop-opacity="0.7"/>
<stop offset="1" stop-color="#CCD2D6"/>
</linearGradient>
<linearGradient id="paint10_linear_1755_5576" x1="95.7942" y1="88.3908" x2="95.1006" y2="81.8952" gradientUnits="userSpaceOnUse">
<stop stop-color="#CCD2D6" stop-opacity="0.7"/>
<stop offset="1" stop-color="#CCD2D6"/>
</linearGradient>
<linearGradient id="paint11_linear_1755_5576" x1="102.841" y1="95.4055" x2="93.8547" y2="81.5155" gradientUnits="userSpaceOnUse">
<stop stop-color="#CCD2D6" stop-opacity="0.7"/>
<stop offset="1" stop-color="#CCD2D6"/>
</linearGradient>
<linearGradient id="paint12_linear_1755_5576" x1="81.9914" y1="64.3485" x2="96.6974" y2="102.401" gradientUnits="userSpaceOnUse">
<stop stop-color="#CCD2D6" stop-opacity="0.4"/>
<stop offset="1" stop-color="#CCD2D6" stop-opacity="0.9"/>
</linearGradient>
<linearGradient id="paint13_linear_1755_5576" x1="82.548" y1="70.1281" x2="97.0704" y2="93.0157" gradientUnits="userSpaceOnUse">
<stop stop-color="#CCD2D6" stop-opacity="0.25"/>
<stop offset="1" stop-color="#CCD2D6" stop-opacity="0.5"/>
</linearGradient>
<linearGradient id="paint14_linear_1755_5576" x1="36.8623" y1="32.1707" x2="-3.76366" y2="75.9215" gradientUnits="userSpaceOnUse">
<stop stop-color="#CCD2D6" stop-opacity="0.4"/>
<stop offset="1" stop-color="#CCD2D6" stop-opacity="0.9"/>
</linearGradient>
<linearGradient id="paint15_linear_1755_5576" x1="90.814" y1="82.2706" x2="50.1881" y2="126.021" gradientUnits="userSpaceOnUse">
<stop stop-color="#CCD2D6" stop-opacity="0.4"/>
<stop offset="1" stop-color="#CCD2D6" stop-opacity="0.9"/>
</linearGradient>
<linearGradient id="paint16_linear_1755_5576" x1="96.3196" y1="87.3825" x2="55.6937" y2="131.135" gradientUnits="userSpaceOnUse">
<stop stop-color="#CCD2D6" stop-opacity="0.4"/>
<stop offset="1" stop-color="#CCD2D6" stop-opacity="0.9"/>
</linearGradient>
<linearGradient id="paint17_linear_1755_5576" x1="98.3733" y1="89.2881" x2="57.7473" y2="133.04" gradientUnits="userSpaceOnUse">
<stop stop-color="#CCD2D6" stop-opacity="0.4"/>
<stop offset="1" stop-color="#CCD2D6" stop-opacity="0.9"/>
</linearGradient>
<linearGradient id="paint18_linear_1755_5576" x1="27.3923" y1="23.377" x2="-13.2349" y2="67.129" gradientUnits="userSpaceOnUse">
<stop stop-color="#CCD2D6" stop-opacity="0.4"/>
<stop offset="1" stop-color="#CCD2D6" stop-opacity="0.9"/>
</linearGradient>
<clipPath id="clip0_1755_5576">
<rect width="120" height="120" fill="white" transform="translate(0.5)"/>
</clipPath>
</defs>
</svg>
