<svg width="263" height="36" viewBox="0 0 263 36" fill="none" xmlns="http://www.w3.org/2000/svg">
<path opacity="0.955" fill-rule="evenodd" clip-rule="evenodd" d="M13.4724 0.618265C14.0078 0.562428 14.5437 0.689329 15.0798 0.998968C15.7244 1.446 16.3448 1.92543 16.941 2.43718C17.1242 2.59767 17.1806 2.781 17.1102 2.98709C13.4781 5.48087 9.84031 7.97659 6.19672 10.4743C5.5815 10.8358 4.9893 11.2307 4.4201 11.6587C4.12814 11.7219 4.09997 11.6654 4.3355 11.4895C4.30733 11.4613 4.27907 11.433 4.2509 11.4049C7.02995 8.03328 9.77948 4.6352 12.4995 1.21047C12.8249 0.999138 13.1492 0.801764 13.4724 0.618265Z" fill="#FAD61A"/>
<path opacity="0.966" fill-rule="evenodd" clip-rule="evenodd" d="M19.4795 2.47994C20.3941 2.33865 21.2119 2.55015 21.9329 3.11444C22.9522 4.24649 23.8405 5.4732 24.5978 6.79458C24.6393 6.90397 24.6534 7.01683 24.6401 7.13298C17.4364 9.40883 10.2453 11.7354 3.06692 14.1126C2.94476 14.1785 2.83198 14.1642 2.72852 14.0703C2.94179 13.7868 3.1956 13.5467 3.48992 13.3511C8.58932 9.85908 13.6654 6.33401 18.7181 2.77604C18.9903 2.6999 19.2441 2.60117 19.4795 2.47994Z" fill="#E16635"/>
<path opacity="0.967" fill-rule="evenodd" clip-rule="evenodd" d="M25.1473 7.64061C26.9218 7.34256 28.1485 8.01937 28.8275 9.67103C29.4487 11.5206 30.0268 13.3818 30.5618 15.2547C22.1294 15.2623 13.6975 15.2488 5.26612 15.2124C3.7318 15.5059 2.81532 16.4222 2.51659 17.9619C2.50246 20.5566 2.46016 23.1513 2.38969 25.7452C1.6128 23.4593 0.837265 21.1751 0.063167 18.8925C-0.20358 17.2969 0.374498 16.1269 1.79748 15.3816C9.59675 12.8053 17.38 10.225 25.1473 7.64061Z" fill="#1F9F7D"/>
<path opacity="0.968" fill-rule="evenodd" clip-rule="evenodd" d="M5.68916 16.0152C13.6699 16.0008 21.6505 16.0152 29.6312 16.0575C30.9911 16.346 31.7666 17.1776 31.9577 18.5532C32.0141 21.9093 32.0141 25.2646 31.9577 28.6207C31.739 29.9109 30.9917 30.7146 29.7158 31.0318C23.3423 31.0462 16.9691 31.0885 10.596 31.1587C10.0113 32.5673 9.47555 33.9632 8.98859 35.3465C8.90839 35.3871 8.82379 35.4015 8.73479 35.3888C8.73479 32.2306 8.73479 29.0716 8.73479 25.9135C10.027 26.7603 11.3524 26.8026 12.711 26.0404C14.0505 24.9879 14.5158 23.6199 14.1069 21.9372C13.4469 20.1496 12.1637 19.318 10.2576 19.4415C8.64528 19.7004 7.61594 20.6166 7.16967 22.191C7.08719 22.8086 7.04489 23.4287 7.04277 24.0523C7.12966 26.3356 7.14378 28.6199 7.08507 30.9049C5.49999 31.3533 4.31558 30.8457 3.53184 29.3821C3.45722 29.1038 3.40087 28.822 3.36263 28.5361C3.30621 25.2087 3.30621 21.8805 3.36263 18.5532C3.56686 17.1784 4.3424 16.3324 5.68916 16.0152ZM20.9173 18.5532C22.3916 18.4221 23.7452 18.7461 24.9781 19.5261C24.7623 19.8874 24.579 20.2681 24.4282 20.6682C23.1284 19.7765 21.7325 19.565 20.2405 20.0337C19.5098 20.5396 19.3829 21.1741 19.8598 21.9372C20.0353 22.1022 20.2186 22.2579 20.4097 22.4025C21.6704 22.8323 22.9113 23.3111 24.1321 23.8408C25.2327 24.8382 25.4442 26.0091 24.7666 27.3517C23.9156 28.3474 22.8299 28.7992 21.5095 28.7053C20.3072 28.7239 19.2074 28.3999 18.2101 27.7324C17.9552 27.5903 17.7578 27.3931 17.6179 27.1402C17.7682 26.7688 17.9515 26.4168 18.1678 26.0827C19.6038 27.4744 21.2535 27.8263 23.1169 27.1402C23.839 26.4608 23.8954 25.7282 23.2861 24.9406C22.9894 24.7502 22.6793 24.581 22.3555 24.433C21.309 24.1495 20.2938 23.7832 19.3099 23.3331C18.2766 22.6064 17.924 21.6335 18.2524 20.4144C18.7838 19.2816 19.6722 18.6615 20.9173 18.5532ZM25.9088 19.8222C26.9087 19.7359 27.3458 20.1877 27.2201 21.1758C26.9389 21.7181 26.5019 21.9009 25.9088 21.7257C25.1232 21.0912 25.1232 20.4567 25.9088 19.8222ZM15.5029 24.3907C16.5451 24.3467 16.954 24.8255 16.7296 25.8289C16.4358 26.2789 16.027 26.4338 15.5029 26.2942C14.6094 25.6605 14.6094 25.026 15.5029 24.3907Z" fill="white"/>
<path opacity="0.937" fill-rule="evenodd" clip-rule="evenodd" d="M10.1732 21.1762C11.703 21.0713 12.5067 21.7769 12.5843 23.2912C12.2462 24.5247 11.4425 25.0746 10.1732 24.9409C8.84897 24.3403 8.46826 23.3674 9.03111 22.0222C9.3339 21.6187 9.7146 21.3369 10.1732 21.1762Z" fill="white"/>
<path d="M46.66 20.464H43.762V25H41.458V11.842H46.66C49.306 11.842 51.016 13.57 51.016 16.144C51.016 18.682 49.288 20.464 46.66 20.464ZM46.21 13.894H43.762V18.412H46.174C47.758 18.412 48.604 17.566 48.604 16.126C48.604 14.686 47.74 13.894 46.21 13.894ZM54.9245 25.234C53.0345 25.234 51.8825 24.136 51.8825 22.462C51.8825 20.824 53.0705 19.798 55.1765 19.636L57.8405 19.438V19.24C57.8405 18.034 57.1205 17.548 56.0045 17.548C54.7085 17.548 53.9885 18.088 53.9885 19.024H52.1165C52.1165 17.098 53.7005 15.838 56.1125 15.838C58.5065 15.838 59.9825 17.134 59.9825 19.6V25H58.0565L57.8945 23.686C57.5165 24.604 56.3105 25.234 54.9245 25.234ZM55.6445 23.578C56.9945 23.578 57.8585 22.768 57.8585 21.4V20.932L56.0045 21.076C54.6365 21.202 54.1145 21.652 54.1145 22.372C54.1145 23.182 54.6545 23.578 55.6445 23.578ZM61.1198 29.122V27.286H62.4338C63.2978 27.286 63.8378 27.088 64.2158 26.044L64.4678 25.378L60.8858 16.108H63.2078L65.4938 22.588L67.9058 16.108H70.1738L65.8178 26.98C65.1518 28.636 64.2158 29.32 62.7578 29.32C62.1458 29.32 61.6058 29.248 61.1198 29.122ZM70.5438 22.3H72.6318C72.6498 23.074 73.2258 23.56 74.2338 23.56C75.2598 23.56 75.8178 23.146 75.8178 22.498C75.8178 22.048 75.5838 21.724 74.7918 21.544L73.1898 21.166C71.5878 20.806 70.8138 20.05 70.8138 18.628C70.8138 16.882 72.2898 15.838 74.3418 15.838C76.3398 15.838 77.6898 16.99 77.7078 18.718H75.6198C75.6018 17.962 75.0978 17.476 74.2518 17.476C73.3878 17.476 72.8838 17.872 72.8838 18.538C72.8838 19.042 73.2798 19.366 74.0358 19.546L75.6378 19.924C77.1318 20.266 77.8878 20.95 77.8878 22.318C77.8878 24.118 76.3578 25.234 74.1618 25.234C71.9478 25.234 70.5438 24.046 70.5438 22.3ZM82.5838 25H80.3878V17.944H78.6778V16.108H80.3878V13.336H82.5838V16.108H84.3118V17.944H82.5838V25ZM89.5671 25.234C86.9211 25.234 85.0671 23.308 85.0671 20.554C85.0671 17.764 86.8851 15.838 89.4951 15.838C92.1591 15.838 93.8511 17.62 93.8511 20.392V21.058L87.1551 21.076C87.3171 22.642 88.1451 23.434 89.6031 23.434C90.8091 23.434 91.6011 22.966 91.8531 22.12H93.8871C93.5091 24.064 91.8891 25.234 89.5671 25.234ZM89.5131 17.638C88.2171 17.638 87.4251 18.34 87.2091 19.672H91.6731C91.6731 18.448 90.8271 17.638 89.5131 17.638ZM101.189 16.072V18.106H100.379C98.7946 18.106 97.8046 18.952 97.8046 20.68V25H95.6086V16.126H97.6786L97.8046 17.422C98.1826 16.54 99.0286 15.946 100.217 15.946C100.523 15.946 100.829 15.982 101.189 16.072ZM103.773 14.326C103.017 14.326 102.423 13.732 102.423 12.994C102.423 12.256 103.017 11.68 103.773 11.68C104.493 11.68 105.087 12.256 105.087 12.994C105.087 13.732 104.493 14.326 103.773 14.326ZM102.675 25V16.108H104.871V25H102.675ZM106.618 20.536C106.618 17.764 108.616 15.856 111.37 15.856C114.124 15.856 116.122 17.764 116.122 20.536C116.122 23.308 114.124 25.216 111.37 25.216C108.616 25.216 106.618 23.308 106.618 20.536ZM108.814 20.536C108.814 22.156 109.858 23.254 111.37 23.254C112.882 23.254 113.926 22.156 113.926 20.536C113.926 18.916 112.882 17.818 111.37 17.818C109.858 17.818 108.814 18.916 108.814 20.536ZM121.517 25.234C118.943 25.234 117.341 23.344 117.341 20.59C117.341 17.818 118.961 15.838 121.643 15.838C122.885 15.838 123.983 16.36 124.541 17.242V11.608H126.719V25H124.703L124.559 23.614C124.019 24.64 122.867 25.234 121.517 25.234ZM122.003 23.218C123.533 23.218 124.523 22.12 124.523 20.518C124.523 18.916 123.533 17.8 122.003 17.8C120.473 17.8 119.537 18.934 119.537 20.518C119.537 22.102 120.473 23.218 122.003 23.218Z" fill="white"/>
</svg>
