<svg width="44" height="44" viewBox="0 0 44 44" fill="none" xmlns="http://www.w3.org/2000/svg">
<rect x="1.375" y="1.375" width="41.25" height="41.25" rx="10.625" fill="#F2F0F8"/>
<rect x="1.375" y="1.375" width="41.25" height="41.25" rx="10.625" stroke="#EAECF0" stroke-width="1.25"/>
<path opacity="0.4" d="M21.01 30.02C25.9861 30.02 30.02 25.9861 30.02 21.01C30.02 16.0339 25.9861 12 21.01 12C16.0339 12 12 16.0339 12 21.01C12 25.9861 16.0339 30.02 21.01 30.02Z" fill="#5E42A7"/>
<path d="M29.7923 31.7768L29.7815 31.775L29.7706 31.7737C29.6454 31.7584 29.4489 31.7047 29.2407 31.533C29.0329 31.3617 28.7856 31.0497 28.5949 30.4735C28.4167 29.9303 28.4938 29.4321 28.7458 29.0822C28.998 28.7319 29.4456 28.5 30.0201 28.5C30.8472 28.5 31.3352 28.7932 31.5488 29.1851C31.7541 29.5794 31.7293 30.1466 31.2682 30.8165L31.2681 30.8165L31.264 30.8226C30.6896 31.6842 30.1604 31.78 29.9001 31.78C29.8218 31.78 29.8042 31.7788 29.7923 31.7768Z" fill="#3E1C96" stroke="#3E1C96"/>
</svg>
