<svg width="44" height="44" viewBox="0 0 44 44" fill="none" xmlns="http://www.w3.org/2000/svg">
<rect x="1.375" y="1.375" width="41.25" height="41.25" rx="10.625" fill="#F2F0F8"/>
<rect x="1.375" y="1.375" width="41.25" height="41.25" rx="10.625" stroke="#EAECF0" stroke-width="1.25"/>
<path opacity="0.4" d="M30.4002 26.3298C30.1202 27.0798 29.5302 27.6498 28.7602 27.9098C27.6802 28.2698 26.5702 28.5398 25.4502 28.7298C25.3402 28.7498 25.2302 28.7698 25.1202 28.7798C24.9402 28.8098 24.7602 28.8298 24.5802 28.8498C24.3602 28.8798 24.1302 28.8998 23.9002 28.9198C23.2702 28.9698 22.6502 28.9998 22.0202 28.9998C21.3802 28.9998 20.7402 28.9698 20.1102 28.9098C19.8402 28.8898 19.5802 28.8598 19.3202 28.8198C19.1702 28.7998 19.0202 28.7798 18.8802 28.7598C18.7702 28.7398 18.6602 28.7298 18.5502 28.7098C17.4402 28.5298 16.3402 28.2598 15.2702 27.8998C14.4702 27.6298 13.8602 27.0598 13.5902 26.3298C13.3202 25.6098 13.4202 24.7698 13.8502 24.0498L14.9802 22.1698C15.2202 21.7598 15.4402 20.9698 15.4402 20.4898V18.6298C15.4402 14.9998 18.3902 12.0498 22.0202 12.0498C25.6402 12.0498 28.5902 14.9998 28.5902 18.6298V20.4898C28.5902 20.9698 28.8102 21.7598 29.0602 22.1698L30.1902 24.0498C30.6002 24.7498 30.6802 25.5698 30.4002 26.3298Z" fill="#5E42A7"/>
<path d="M22.0002 20.2596C21.8564 20.2596 21.7402 20.1435 21.7402 19.9996V16.8996C21.7402 16.7558 21.8564 16.6396 22.0002 16.6396C22.1441 16.6396 22.2602 16.7558 22.2602 16.8996V19.9923C22.2541 20.1496 22.1265 20.2596 22.0002 20.2596Z" fill="#3E1C96" stroke="#3E1C96"/>
<path d="M24.8297 30.01C24.4097 31.17 23.2997 32 21.9997 32C21.2097 32 20.4297 31.68 19.8797 31.11C19.5597 30.81 19.3197 30.41 19.1797 30C19.3097 30.02 19.4397 30.03 19.5797 30.05C19.8097 30.08 20.0497 30.11 20.2897 30.13C20.8597 30.18 21.4397 30.21 22.0197 30.21C22.5897 30.21 23.1597 30.18 23.7197 30.13C23.9297 30.11 24.1397 30.1 24.3397 30.07C24.4997 30.05 24.6597 30.03 24.8297 30.01Z" fill="#3E1C96"/>
</svg>
