<svg width="107" height="28" viewBox="0 0 107 28" fill="none" xmlns="http://www.w3.org/2000/svg">
<rect x="1.45455" y="1.45455" width="25.0909" height="25.0909" rx="12.5455" fill="white"/>
<rect x="1.45455" y="1.45455" width="25.0909" height="25.0909" rx="12.5455" stroke="url(#paint0_linear_1755_5906)" stroke-width="1.09091"/>
<path d="M22.183 17.581C22.183 18.9143 21.0427 20 19.6424 20H5.81934V10.419C5.81934 9.08571 6.95959 8 8.3599 8H22.183V17.581Z" fill="white"/>
<path d="M18.6117 8.80957C17.6114 8.80957 16.7913 9.581 16.7913 10.5429V12.3429H19.3618C19.4218 12.3429 19.4919 12.3429 19.5419 12.3524C20.122 12.381 20.5521 12.6667 20.5521 13.162C20.5521 13.5524 20.262 13.8858 19.7219 13.9524V13.9715C20.312 14.0096 20.7621 14.3239 20.7621 14.8096C20.7621 15.3334 20.262 15.6762 19.6019 15.6762H16.7812V19.2H19.4518C20.4521 19.2 21.2722 18.4286 21.2722 17.4667V8.80957H18.6117Z" fill="url(#paint1_linear_1755_5906)"/>
<path d="M17.6815 15.1239H18.7317C18.7467 15.1239 18.7717 15.1215 18.7967 15.1191C18.8217 15.1167 18.8467 15.1143 18.8617 15.1143C19.0618 15.0762 19.2318 14.9048 19.2318 14.6667C19.2318 14.4381 19.0618 14.2667 18.8617 14.2191C18.8317 14.2096 18.7717 14.2096 18.7317 14.2096H17.6815V15.1239Z" fill="url(#paint2_linear_1755_5906)"/>
<path d="M18.7317 12.8667C18.9317 12.8952 19.1018 13.0476 19.1018 13.2762C19.1018 13.5048 18.9317 13.6571 18.7317 13.6857C18.7217 13.6952 18.6617 13.6952 18.6317 13.6952H17.6815V12.8571H18.6317C18.6482 12.8571 18.6708 12.86 18.6911 12.8626C18.7077 12.8647 18.7227 12.8667 18.7317 12.8667Z" fill="url(#paint3_linear_1755_5906)"/>
<path d="M8.54916 8.80957C7.54893 8.80957 6.72875 9.581 6.72875 10.5429V14.8191C7.23887 15.0572 7.76898 15.2096 8.2991 15.2096C8.92924 15.2096 9.26932 14.8477 9.26932 14.3524V12.3334H10.8297V14.3429C10.8297 15.1239 10.3195 15.762 8.58917 15.762C7.53893 15.762 6.71875 15.5429 6.71875 15.5429V19.1905H9.38934C10.3896 19.1905 11.2097 18.4191 11.2097 17.4572V8.80957H8.54916Z" fill="url(#paint4_linear_1755_5906)"/>
<path d="M13.5802 8.80957C12.5799 8.80957 11.7598 9.581 11.7598 10.5429V12.8096C12.2199 12.4381 13.02 12.2 14.3103 12.2572C15.0005 12.2858 15.7406 12.4667 15.7406 12.4667V13.2C15.3706 13.0191 14.9305 12.8572 14.3603 12.8191C13.3801 12.7524 12.79 13.2096 12.79 14.0096C12.79 14.8191 13.3801 15.2762 14.3603 15.2C14.9305 15.162 15.3706 14.9905 15.7406 14.8191V15.5524C15.7406 15.5524 15.0105 15.7334 14.3103 15.762C13.02 15.8191 12.2199 15.581 11.7598 15.2096V19.2096H14.4304C15.4306 19.2096 16.2508 18.4381 16.2508 17.4762V8.80957H13.5802Z" fill="url(#paint5_linear_1755_5906)"/>
<path d="M34.672 11.552C34.672 9.568 36.272 8.224 38.656 8.224C40.864 8.224 42.288 9.456 42.416 11.456H40.832C40.752 10.304 39.936 9.632 38.64 9.632C37.184 9.632 36.24 10.368 36.24 11.504C36.24 12.432 36.768 12.992 37.856 13.248L39.76 13.696C41.648 14.128 42.608 15.152 42.608 16.784C42.608 18.864 40.992 20.192 38.528 20.192C36.176 20.192 34.608 18.96 34.512 16.976H36.112C36.144 18.08 37.072 18.784 38.528 18.784C40.064 18.784 41.04 18.064 41.04 16.912C41.04 16 40.544 15.424 39.44 15.168L37.536 14.736C35.648 14.304 34.672 13.216 34.672 11.552ZM44.5784 20V8.432H48.9944C51.2504 8.432 52.6264 9.584 52.6264 11.488C52.6264 12.816 52.0504 13.712 50.8984 14.192C52.1784 14.608 52.8344 15.536 52.8344 16.912C52.8344 18.832 51.4424 20 49.1544 20H44.5784ZM48.8984 9.824H46.1464V13.536H48.9944C50.2904 13.536 51.0264 12.832 51.0264 11.632C51.0264 10.48 50.2584 9.824 48.8984 9.824ZM49.1224 14.896H46.1464V18.608H49.1224C50.4664 18.608 51.2184 17.92 51.2184 16.72C51.2184 15.568 50.4504 14.896 49.1224 14.896ZM54.1251 11.552C54.1251 9.568 55.7251 8.224 58.1091 8.224C60.3171 8.224 61.7411 9.456 61.8691 11.456H60.2851C60.2051 10.304 59.3891 9.632 58.0931 9.632C56.6371 9.632 55.6931 10.368 55.6931 11.504C55.6931 12.432 56.2211 12.992 57.3091 13.248L59.2131 13.696C61.1011 14.128 62.0611 15.152 62.0611 16.784C62.0611 18.864 60.4451 20.192 57.9811 20.192C55.6291 20.192 54.0611 18.96 53.9651 16.976H55.5651C55.5971 18.08 56.5251 18.784 57.9811 18.784C59.5171 18.784 60.4931 18.064 60.4931 16.912C60.4931 16 59.9971 15.424 58.8931 15.168L56.9891 14.736C55.1011 14.304 54.1251 13.216 54.1251 11.552ZM68.8315 20.176C65.5355 20.176 63.3435 17.808 63.3435 14.224C63.3435 10.656 65.5995 8.24 68.9115 8.24C71.5195 8.24 73.5195 9.792 73.9515 12.16H72.2715C71.8395 10.656 70.5435 9.744 68.8635 9.744C66.5275 9.744 64.9915 11.504 64.9915 14.208C64.9915 16.912 66.5275 18.672 68.8635 18.672C70.5595 18.672 71.9035 17.76 72.3355 16.336H73.9995C73.5035 18.64 71.4395 20.176 68.8315 20.176ZM81.8651 8.432V18.544H86.9531V20H80.2971V8.432H81.8651ZM90.2245 8.432V18.544H95.3125V20H88.6565V8.432H90.2245ZM101.253 20.176C97.9574 20.176 95.7654 17.808 95.7654 14.224C95.7654 10.656 98.0214 8.24 101.333 8.24C103.941 8.24 105.941 9.792 106.373 12.16H104.693C104.261 10.656 102.965 9.744 101.285 9.744C98.9494 9.744 97.4134 11.504 97.4134 14.208C97.4134 16.912 98.9494 18.672 101.285 18.672C102.981 18.672 104.325 17.76 104.757 16.336H106.421C105.925 18.64 103.861 20.176 101.253 20.176Z" fill="#48464E"/>
<defs>
<linearGradient id="paint0_linear_1755_5906" x1="26" y1="5.81818" x2="0.0909091" y2="26" gradientUnits="userSpaceOnUse">
<stop stop-color="#FAD61A"/>
<stop offset="1" stop-color="#E16635"/>
</linearGradient>
<linearGradient id="paint1_linear_1755_5906" x1="16.7893" y1="13.2748" x2="21.2842" y2="13.2748" gradientUnits="userSpaceOnUse">
<stop stop-color="#007940"/>
<stop offset="0.2285" stop-color="#00873F"/>
<stop offset="0.7433" stop-color="#40A737"/>
<stop offset="1" stop-color="#5CB531"/>
</linearGradient>
<linearGradient id="paint2_linear_1755_5906" x1="16.7893" y1="13.2748" x2="21.2842" y2="13.2748" gradientUnits="userSpaceOnUse">
<stop stop-color="#007940"/>
<stop offset="0.2285" stop-color="#00873F"/>
<stop offset="0.7433" stop-color="#40A737"/>
<stop offset="1" stop-color="#5CB531"/>
</linearGradient>
<linearGradient id="paint3_linear_1755_5906" x1="16.7893" y1="13.2748" x2="21.2842" y2="13.2748" gradientUnits="userSpaceOnUse">
<stop stop-color="#007940"/>
<stop offset="0.2285" stop-color="#00873F"/>
<stop offset="0.7433" stop-color="#40A737"/>
<stop offset="1" stop-color="#5CB531"/>
</linearGradient>
<linearGradient id="paint4_linear_1755_5906" x1="6.72648" y1="14.0005" x2="11.2909" y2="14.0005" gradientUnits="userSpaceOnUse">
<stop stop-color="#1F286F"/>
<stop offset="0.4751" stop-color="#004E94"/>
<stop offset="0.8261" stop-color="#0066B1"/>
<stop offset="1" stop-color="#006FBC"/>
</linearGradient>
<linearGradient id="paint5_linear_1755_5906" x1="11.7338" y1="14.0005" x2="16.1667" y2="14.0005" gradientUnits="userSpaceOnUse">
<stop stop-color="#6C2C2F"/>
<stop offset="0.1735" stop-color="#882730"/>
<stop offset="0.5731" stop-color="#BE1833"/>
<stop offset="0.8585" stop-color="#DC0436"/>
<stop offset="1" stop-color="#E60039"/>
</linearGradient>
</defs>
</svg>
