<svg width="200" height="200" viewBox="0 0 200 200" fill="none" xmlns="http://www.w3.org/2000/svg">
<g clip-path="url(#clip0_1755_3967)">
<path d="M0 100C0 94.9242 2.478 90.3262 6.48 87.0022C10.482 83.6722 16.012 81.6162 22.118 81.6162H51.278C51.104 81.9842 50.94 82.3602 50.782 82.7382L26.174 97.3702C20.124 100.964 17.39 108.282 19.594 114.962L20.712 118.348C9.152 117.748 0.002 109.764 0.002 100.002L0 100Z" fill="url(#paint0_linear_1755_3967)"/>
<path d="M48.6816 130.126L66.8876 127.618C66.6776 127.508 66.4676 127.394 66.2576 127.278C66.4656 127.392 66.6756 127.506 66.8876 127.616C71.6456 130.112 76.8736 131.22 82.0236 130.616H82.0316C82.3756 130.596 92.2976 130.098 97.1916 128.44C98.1256 128.232 99.0556 127.968 99.9756 127.644C109.91 124.162 116.424 114.876 117.962 103.846L125.57 102.798C126.128 106.99 127.534 124.644 116.06 147.478C111.634 156.288 106.052 162.272 100.002 165.906C99.2576 164.672 97.7116 164.086 96.2876 164.618C94.7916 165.176 92.6816 165.892 89.8256 166.72C84.9776 168.126 78.7116 167.004 75.2756 166.168C73.8116 165.812 72.3056 166.57 71.7176 167.958C68.9836 166.856 66.3736 165.404 63.9576 163.654C52.8796 155.618 49.6336 138.962 48.6836 130.124L48.6816 130.126Z" fill="url(#paint1_linear_1755_3967)"/>
<path d="M145.072 136.768C145.072 146.92 154.976 155.15 167.192 155.15H177.882C190.096 155.15 199.998 163.38 199.998 173.536C199.998 178.612 197.522 183.206 193.52 186.532C189.518 189.862 183.986 191.918 177.882 191.918H22.118C9.902 191.918 0 183.688 0 173.536C0 168.46 2.478 163.862 6.48 160.538C10.482 157.21 16.012 155.152 22.118 155.152H23.602C29.71 155.152 35.24 153.094 39.242 149.768C40.06 149.09 40.812 148.358 41.494 147.58C45.214 158.284 52.844 171.26 68.364 176.078L68.208 176.456C67.48 178.224 68.518 180.216 70.384 180.634C73.712 181.386 79.168 182.204 85.636 181.59C92.532 180.938 97.804 179.17 100.708 177.98C102.162 177.384 102.936 175.796 102.504 174.284L102.404 173.932C133.088 160.142 135.568 114.56 135.668 102.226C139.3 103.864 143.2 104.552 147.048 104.102C147.048 104.102 147.05 104.102 147.056 104.1C147.344 104.084 155.646 103.666 159.754 102.28C159.756 102.278 159.76 102.278 159.762 102.278C160.546 102.1 161.324 101.88 162.094 101.61C170.432 98.6882 175.898 90.8802 177.174 81.6162H177.882C190.096 81.6162 199.998 89.8462 199.998 100.002C199.998 105.078 197.522 109.676 193.52 113C189.518 116.33 183.986 118.386 177.882 118.386H167.192C161.084 118.386 155.554 120.442 151.552 123.77C147.55 127.098 145.072 131.69 145.072 136.768Z" fill="url(#paint2_linear_1755_3967)"/>
<path d="M177.884 8.08008H22.118C16.012 8.08008 10.482 10.1361 6.48 13.4661C2.478 16.7921 0 21.3881 0 26.4641C0 36.6181 9.904 44.8501 22.118 44.8501H51.788C64.004 44.8501 73.906 53.0801 73.906 63.2321C73.906 63.5461 73.898 63.8581 73.878 64.1701C74.528 63.9161 74.912 63.7841 74.988 63.7581C74.98 63.7621 74.968 63.7681 74.96 63.7741C74.968 63.7701 74.978 63.7661 74.988 63.7601C74.992 63.7581 74.996 63.7541 75.002 63.7541C75.736 63.4141 76.49 63.1061 77.266 62.8321C87.858 59.1201 99.53 62.9941 107.734 71.7821L120.866 63.9741C122.574 59.8961 125.276 56.4341 128.8 54.0621C129.002 53.9141 129.212 53.7801 129.424 53.6581C129.448 53.6401 129.47 53.6301 129.494 53.6161C129.496 53.6161 129.496 53.6141 129.498 53.6141C129.982 53.3141 130.482 53.0341 130.998 52.7801C136.96 49.5241 140.916 48.1441 141.158 48.0621C141.144 48.0681 141.132 48.0781 141.116 48.0841C141.132 48.0781 141.144 48.0701 141.158 48.0641C141.162 48.0621 141.166 48.0601 141.168 48.0601C141.784 47.7741 142.418 47.5161 143.068 47.2881C148.476 45.3921 154.222 45.8581 159.444 48.1801C163.038 46.0801 167.418 44.8481 172.148 44.8481H177.884C183.988 44.8481 189.52 42.7901 193.522 39.4621C197.524 36.1361 200 31.5401 200 26.4641C200 16.3121 190.096 8.08208 177.884 8.08208V8.08008ZM121.44 46.0461C121.44 48.4901 119.458 50.4761 117.01 50.4761H109.836V54.6501C109.836 56.5701 107.566 57.5921 106.13 56.3161L99.548 50.4761H71.98C69.532 50.4761 67.55 48.4921 67.55 46.0461V20.2701C67.55 17.8261 69.532 15.8401 71.98 15.8401H117.008C119.456 15.8401 121.438 17.8241 121.438 20.2701V46.0461H121.44Z" fill="url(#paint3_linear_1755_3967)"/>
<path d="M65.7859 62.3363C65.7859 64.7343 65.0839 66.9663 63.8719 68.8423C63.5419 69.0183 63.2079 69.1983 62.8679 69.3843C62.2539 69.6883 61.6579 70.0223 61.0779 70.3803C61.0759 70.3803 61.0759 70.3823 61.0739 70.3823C61.0459 70.3983 61.0199 70.4123 60.9939 70.4303C60.7379 70.5783 60.4879 70.7383 60.2479 70.9123C58.8899 71.8283 57.6319 72.8783 56.4859 74.0443H56.4839C55.6119 74.2463 54.7019 74.3523 53.7699 74.3523C47.1339 74.3523 41.7539 68.9723 41.7539 62.3363C41.7539 55.7003 47.1339 50.3203 53.7699 50.3203C60.4059 50.3203 65.7859 55.7003 65.7859 62.3363Z" fill="url(#paint4_linear_1755_3967)"/>
<path d="M134.364 101.59L125.566 102.802L117.958 103.848C118.764 98.0595 118.202 91.7915 116.044 85.6315C114.156 80.2495 111.27 75.5615 107.734 71.7835L120.864 63.9775C118.29 70.1355 117.988 77.7055 120.57 85.0775C122.846 91.5675 126.964 96.7835 131.912 100.122C132.708 100.662 133.528 101.154 134.364 101.592V101.59Z" fill="url(#paint5_linear_1755_3967)"/>
<path d="M159.764 102.277C155.66 103.667 147.346 104.087 147.058 104.099C147.052 104.101 147.05 104.101 147.05 104.101C143.202 104.551 139.302 103.863 135.672 102.225C135.234 102.025 134.798 101.813 134.368 101.587C133.532 101.149 132.712 100.657 131.916 100.117C126.968 96.7794 122.852 91.5634 120.574 85.0734C117.992 77.7014 118.294 70.1314 120.868 63.9734C122.576 59.8934 125.278 56.4334 128.802 54.0614C129.004 53.9154 129.214 53.7794 129.426 53.6574C129.45 53.6414 129.47 53.6314 129.494 53.6174C129.496 53.6174 129.496 53.6154 129.498 53.6154C129.982 53.3154 130.482 53.0354 130.996 52.7814C136.958 49.5254 140.914 48.1474 141.156 48.0654C136.736 50.1214 133.256 53.6294 130.942 57.9854C127.296 64.8414 126.548 73.8014 129.598 82.5014C132.45 90.6414 138.038 96.8854 144.584 100.177C149.366 102.589 154.658 103.423 159.764 102.275V102.277Z" fill="url(#paint6_linear_1755_3967)"/>
<path d="M175.562 66.3975C170.306 51.3975 155.756 42.8415 143.062 47.2895C142.412 47.5175 141.778 47.7755 141.162 48.0615C141.158 48.0615 141.154 48.0635 141.152 48.0655C129.776 53.3595 124.608 68.2755 129.592 82.5015C134.528 96.5915 147.664 104.993 159.76 102.277C160.544 102.101 161.322 101.879 162.092 101.609C174.788 97.1615 180.818 81.3955 175.562 66.3975ZM163.524 91.3835C162.572 91.9855 161.546 92.4875 160.45 92.8695C159.02 93.3715 157.552 93.6455 156.086 93.7035C148.176 94.0335 140.204 88.2155 137.006 79.0895C133.808 69.9635 136.406 60.4415 142.792 55.7595C143.974 54.8915 145.29 54.1895 146.724 53.6875C147.646 53.3655 148.582 53.1355 149.524 52.9995C157.926 51.7715 166.758 57.7415 170.166 67.4695C173.506 76.9955 170.532 86.9475 163.524 91.3815V91.3835Z" fill="url(#paint7_linear_1755_3967)"/>
<path d="M161.871 70.3772C158.673 61.2532 150.705 55.4332 142.793 55.7612C136.407 60.4432 133.809 69.9632 137.007 79.0912C140.205 88.2172 148.175 94.0352 156.087 93.7052C162.475 89.0252 165.069 79.5052 161.871 70.3792V70.3772ZM143.571 81.1352C142.617 81.4692 141.563 80.9372 141.215 79.9452C140.865 78.9532 141.359 77.8792 142.313 77.5432C143.267 77.2092 144.323 77.7432 144.671 78.7332C145.019 79.7252 144.525 80.8012 143.571 81.1352ZM145.667 74.6552C143.137 75.5432 140.341 74.1312 139.419 71.5012C138.499 68.8732 139.803 66.0252 142.333 65.1392C144.863 64.2532 147.659 65.6672 148.581 68.2932C149.501 70.9212 148.197 73.7712 145.667 74.6552Z" fill="url(#paint8_linear_1755_3967)"/>
<path d="M170.167 67.472C173.959 78.292 169.607 89.664 160.451 92.872C159.019 93.374 157.553 93.646 156.087 93.706C162.475 89.026 165.069 79.506 161.871 70.38C158.673 61.254 150.705 55.436 142.793 55.764C143.977 54.896 145.293 54.194 146.723 53.692C155.879 50.484 166.375 56.656 170.167 67.474V67.472Z" fill="url(#paint9_linear_1755_3967)"/>
<path d="M145.665 74.6553C143.135 75.5433 140.339 74.1313 139.417 71.5013C138.497 68.8733 139.801 66.0253 142.331 65.1393C144.861 64.2533 147.657 65.6673 148.579 68.2933C149.499 70.9213 148.195 73.7713 145.665 74.6553Z" fill="url(#paint10_linear_1755_3967)"/>
<path d="M143.571 81.1349C142.617 81.4689 141.563 80.9369 141.215 79.9449C140.865 78.9529 141.359 77.8789 142.313 77.5429C143.267 77.2089 144.323 77.7429 144.671 78.7329C145.019 79.7249 144.525 80.8009 143.571 81.1349Z" fill="url(#paint11_linear_1755_3967)"/>
<path d="M66.8819 127.619L48.6759 130.127L38.0119 131.595C30.8439 132.579 23.9899 128.307 21.7219 121.437L19.5859 114.963C17.3839 108.283 20.1179 100.965 26.1659 97.3712L50.7759 82.7412C47.7039 90.0892 47.3419 99.1212 50.4239 107.919C53.5759 116.911 59.6919 123.849 66.8799 127.621L66.8819 127.619Z" fill="url(#paint12_linear_1755_3967)"/>
<path d="M97.1883 128.441C92.2943 130.099 82.3743 130.597 82.0283 130.615H82.0203C76.8703 131.219 71.6423 130.111 66.8863 127.617C59.6983 123.847 53.5823 116.907 50.4283 107.915C47.3463 99.1187 47.7063 90.0847 50.7803 82.7387C52.8163 77.8707 56.0403 73.7427 60.2443 70.9127C60.4863 70.7367 60.7363 70.5767 60.9903 70.4307C61.0183 70.4127 61.0443 70.3987 61.0723 70.3827C61.0743 70.3827 61.0743 70.3807 61.0763 70.3807C61.6543 70.0227 62.2503 69.6887 62.8643 69.3867C69.9783 65.5027 74.6983 63.8587 74.9883 63.7607C69.7163 66.2127 65.5623 70.3987 62.8003 75.5947C58.4523 83.7767 57.5563 94.4667 61.1963 104.847C64.5983 114.561 71.2683 122.009 79.0803 125.939C84.7843 128.815 91.0983 129.811 97.1903 128.443L97.1883 128.441Z" fill="url(#paint13_linear_1755_3967)"/>
<path d="M101.678 115.441C100.544 116.161 99.3182 116.757 98.0102 117.215C96.3022 117.815 94.5522 118.141 92.8042 118.209C83.3662 118.603 73.8542 111.661 70.0402 100.773C66.2262 89.8829 69.3222 78.5249 76.9442 72.9389C78.3562 71.9029 79.9262 71.0669 81.6342 70.4669C82.7342 70.0809 83.8522 69.8089 84.9742 69.6449C94.9982 68.1789 105.536 75.3009 109.602 86.9109C113.586 98.2769 110.038 110.151 101.678 115.441ZM116.042 85.6289C114.154 80.2469 111.268 75.5589 107.732 71.7809C99.5282 62.9929 87.8542 59.1189 77.2622 62.8309C76.4862 63.1049 75.7302 63.4109 74.9962 63.7509C74.9922 63.7509 74.9882 63.7549 74.9822 63.7569C61.4102 70.0749 55.2422 87.8689 61.1922 104.843C67.0802 121.655 82.7542 131.679 97.1842 128.439C98.1182 128.231 99.0462 127.965 99.9682 127.643C109.902 124.161 116.416 114.875 117.954 103.845C118.76 98.0569 118.198 91.7889 116.04 85.6289H116.042Z" fill="url(#paint14_linear_1755_3967)"/>
<path d="M99.7041 90.3765C95.8901 79.4885 86.3821 72.5465 76.9441 72.9365C69.3241 78.5225 66.2261 89.8805 70.0421 100.769C73.8581 111.659 83.3661 118.601 92.8041 118.209C100.424 112.625 103.52 101.267 99.7041 90.3765ZM77.8701 103.213C76.7321 103.613 75.4721 102.977 75.0561 101.793C74.6421 100.611 75.2301 99.3265 76.3681 98.9265C77.5061 98.5285 78.7681 99.1645 79.1821 100.347C79.5961 101.531 79.0081 102.813 77.8701 103.213ZM80.3701 95.4805C77.3521 96.5365 74.0161 94.8545 72.9181 91.7165C71.8181 88.5825 73.3741 85.1825 76.3921 84.1265C79.4101 83.0685 82.7481 84.7525 83.8461 87.8885C84.9461 91.0245 83.3881 94.4245 80.3701 95.4805Z" fill="url(#paint15_linear_1755_3967)"/>
<path d="M109.601 86.9113C114.125 99.8213 108.933 113.389 98.0095 117.217C96.3015 117.815 94.5515 118.141 92.8015 118.213C100.421 112.629 103.517 101.271 99.7015 90.3813C95.8875 79.4933 86.3795 72.5493 76.9395 72.9413C78.3515 71.9053 79.9215 71.0673 81.6295 70.4693C92.5535 66.6413 105.077 74.0053 109.601 86.9133V86.9113Z" fill="url(#paint16_linear_1755_3967)"/>
<path d="M80.3695 95.4836C77.3515 96.5396 74.0156 94.8576 72.9176 91.7196C71.8176 88.5856 73.3736 85.1856 76.3916 84.1296C79.4096 83.0716 82.7476 84.7556 83.8455 87.8916C84.9455 91.0276 83.3875 94.4276 80.3695 95.4836Z" fill="url(#paint17_linear_1755_3967)"/>
<path d="M77.8694 103.213C76.7314 103.613 75.4714 102.977 75.0554 101.793C74.6414 100.611 75.2294 99.3272 76.3674 98.9272C77.5054 98.5292 78.7674 99.1652 79.1814 100.347C79.5954 101.531 79.0074 102.813 77.8694 103.213Z" fill="url(#paint18_linear_1755_3967)"/>
<path d="M63.9517 163.655C66.3677 165.407 68.9777 166.859 71.7117 167.959C71.7077 167.967 71.7037 167.979 71.6977 167.987L68.3597 176.077C40.1437 167.317 38.0137 131.593 38.0137 131.593L48.6777 130.125C49.6297 138.963 52.8737 155.619 63.9537 163.655H63.9517Z" fill="url(#paint19_linear_1755_3967)"/>
<path d="M135.668 102.227C135.568 114.559 133.086 160.143 102.402 173.933L100.322 166.655C100.244 166.387 100.136 166.135 99.998 165.909C106.046 162.275 111.628 156.291 116.054 147.481C127.528 124.645 126.124 106.991 125.566 102.801L134.364 101.589C134.796 101.815 135.23 102.027 135.668 102.227Z" fill="url(#paint20_linear_1755_3967)"/>
<path d="M100.708 177.98C97.8018 179.17 92.5318 180.936 85.6338 181.59C79.1658 182.204 73.7098 181.386 70.3798 180.634C68.5138 180.214 67.4758 178.222 68.2058 176.454L68.3618 176.076L71.6998 167.986C71.6998 167.986 71.7078 167.966 71.7138 167.958C72.2998 166.57 73.8058 165.812 75.2698 166.168C78.7058 167.004 84.9698 168.124 89.8218 166.72C92.6778 165.89 94.7858 165.176 96.2838 164.618C97.7058 164.086 99.2538 164.674 99.9978 165.908C100.136 166.134 100.244 166.386 100.322 166.654L102.402 173.932L102.502 174.284C102.934 175.796 102.16 177.384 100.706 177.98H100.708Z" fill="url(#paint21_linear_1755_3967)"/>
<path d="M41.5637 169.112C41.2157 169.112 40.8697 169.108 40.5217 169.102C40.1897 169.096 39.9277 168.822 39.9337 168.49C39.9397 168.162 40.2077 167.902 40.5337 167.902C40.5377 167.902 40.5417 167.902 40.5457 167.902C42.1237 167.93 43.7177 167.892 45.2897 167.784C45.6197 167.76 45.9057 168.012 45.9297 168.342C45.9517 168.672 45.7017 168.958 45.3717 168.982C44.1097 169.068 42.8297 169.112 41.5637 169.112ZM35.7457 168.802C35.7237 168.802 35.7037 168.802 35.6817 168.798C34.0737 168.626 32.4597 168.38 30.8857 168.068C30.5617 168.004 30.3497 167.688 30.4137 167.362C30.4777 167.038 30.7957 166.826 31.1197 166.89C32.6597 167.196 34.2377 167.436 35.8117 167.604C36.1417 167.64 36.3797 167.936 36.3437 168.264C36.3117 168.572 36.0497 168.8 35.7477 168.8L35.7457 168.802ZM50.0997 168.448C49.8097 168.448 49.5537 168.236 49.5077 167.94C49.4557 167.612 49.6797 167.306 50.0077 167.254C51.5677 167.01 53.1337 166.694 54.6597 166.316C54.9817 166.236 55.3057 166.432 55.3857 166.754C55.4657 167.076 55.2697 167.402 54.9477 167.48C53.3857 167.866 51.7877 168.19 50.1917 168.44C50.1597 168.444 50.1297 168.448 50.0977 168.448H50.0997ZM59.4057 166.14C59.1557 166.14 58.9237 165.984 58.8377 165.734C58.7297 165.42 58.8957 165.08 59.2097 164.972C59.5157 164.866 59.8217 164.758 60.1257 164.648C61.3097 164.216 62.4877 163.738 63.6217 163.228C63.9237 163.092 64.2797 163.228 64.4157 163.53C64.5517 163.832 64.4157 164.188 64.1137 164.324C62.9517 164.846 61.7477 165.334 60.5377 165.776C60.2257 165.89 59.9157 166 59.6017 166.108C59.5377 166.13 59.4717 166.14 59.4057 166.14ZM68.1457 162.202C67.9377 162.202 67.7357 162.094 67.6257 161.9C67.4618 161.612 67.5597 161.246 67.8477 161.082C69.2637 160.268 70.5957 159.398 71.8037 158.496C72.0697 158.298 72.4457 158.352 72.6437 158.618C72.8417 158.884 72.7877 159.26 72.5217 159.458C71.2737 160.39 69.9037 161.286 68.4457 162.124C68.3517 162.178 68.2497 162.204 68.1477 162.204L68.1457 162.202ZM104.11 159.364C103.786 159.364 103.52 159.106 103.51 158.78C103.502 158.448 103.762 158.172 104.094 158.164C105.67 158.122 107.272 158.036 108.854 157.908C109.184 157.88 109.474 158.128 109.5 158.458C109.526 158.788 109.28 159.078 108.95 159.104C107.346 159.234 105.722 159.32 104.126 159.364C104.12 159.364 104.116 159.364 104.11 159.364ZM99.3097 159.36C99.3097 159.36 99.2977 159.36 99.2917 159.36C97.6717 159.312 96.0477 159.218 94.4657 159.08C94.1357 159.052 93.8917 158.76 93.9197 158.43C93.9497 158.1 94.2377 157.854 94.5697 157.884C96.1277 158.02 97.7277 158.114 99.3257 158.16C99.6577 158.17 99.9177 158.446 99.9077 158.778C99.8977 159.104 99.6317 159.36 99.3077 159.36H99.3097ZM113.674 158.594C113.378 158.594 113.12 158.376 113.08 158.074C113.036 157.746 113.266 157.444 113.594 157.4C115.16 157.19 116.744 156.934 118.302 156.642C118.628 156.582 118.942 156.796 119.002 157.12C119.064 157.446 118.848 157.76 118.524 157.82C116.946 158.116 115.34 158.376 113.754 158.588C113.726 158.592 113.7 158.594 113.674 158.594ZM89.7537 158.514C89.7237 158.514 89.6937 158.512 89.6617 158.508C87.9537 158.246 86.3957 157.938 84.8997 157.564C84.5777 157.484 84.3837 157.158 84.4637 156.836C84.5437 156.514 84.8697 156.32 85.1917 156.4C86.6517 156.764 88.1737 157.066 89.8437 157.322C90.1717 157.372 90.3957 157.678 90.3457 158.006C90.2997 158.302 90.0437 158.516 89.7537 158.516V158.514ZM123.106 156.818C122.836 156.818 122.59 156.634 122.524 156.36C122.446 156.038 122.644 155.714 122.966 155.636C124.51 155.26 126.058 154.838 127.566 154.384C127.884 154.288 128.218 154.468 128.314 154.786C128.41 155.104 128.23 155.438 127.912 155.534C126.384 155.996 124.814 156.422 123.248 156.804C123.2 156.816 123.152 156.822 123.106 156.822V156.818ZM75.7757 156.426C75.6257 156.426 75.4777 156.37 75.3617 156.26C75.1217 156.03 75.1137 155.652 75.3437 155.412C75.7037 155.036 76.0417 154.65 76.3597 154.258C76.1877 154.162 76.0197 154.064 75.8517 153.964C75.5677 153.794 75.4737 153.426 75.6417 153.142C75.8117 152.858 76.1797 152.764 76.4637 152.932C76.6677 153.052 76.8737 153.172 77.0837 153.288C77.4477 152.762 77.7737 152.226 78.0597 151.678C78.2137 151.384 78.5757 151.27 78.8697 151.424C79.1637 151.578 79.2777 151.94 79.1237 152.234C78.8357 152.784 78.5117 153.324 78.1537 153.852C78.9657 154.258 79.8137 154.636 80.6917 154.978C80.9997 155.098 81.1537 155.446 81.0317 155.756C80.9117 156.064 80.5637 156.216 80.2537 156.096C79.2757 155.714 78.3317 155.292 77.4337 154.832C77.0557 155.314 76.6477 155.784 76.2117 156.24C76.0937 156.364 75.9357 156.426 75.7777 156.426H75.7757ZM132.294 154.044C132.048 154.044 131.818 153.892 131.73 153.648C131.616 153.336 131.778 152.992 132.088 152.88C133.584 152.336 135.076 151.744 136.518 151.124C136.822 150.992 137.176 151.134 137.306 151.438C137.436 151.742 137.296 152.096 136.992 152.226C135.528 152.856 134.016 153.456 132.498 154.008C132.43 154.032 132.362 154.044 132.294 154.044ZM72.4157 151.068C72.2517 151.068 72.0877 151 71.9677 150.868C70.7857 149.548 70.0297 148.12 69.7177 146.624C69.6977 146.532 69.6817 146.438 69.6677 146.344C69.6157 146.016 69.8397 145.71 70.1677 145.658C70.4957 145.606 70.8017 145.83 70.8537 146.158C70.8657 146.232 70.8777 146.306 70.8937 146.378C71.1597 147.666 71.8217 148.906 72.8617 150.066C73.0837 150.312 73.0617 150.692 72.8157 150.914C72.7017 151.016 72.5577 151.068 72.4157 151.068ZM141.104 150.244C140.884 150.244 140.674 150.124 140.568 149.914C140.418 149.618 140.538 149.258 140.832 149.108C142.258 148.388 143.662 147.62 145.01 146.826C145.296 146.658 145.664 146.752 145.832 147.038C146 147.324 145.906 147.692 145.62 147.86C144.25 148.668 142.822 149.448 141.374 150.178C141.288 150.222 141.194 150.242 141.104 150.242V150.244ZM80.0037 148.002C79.9837 148.002 79.9637 148.002 79.9437 148C79.6137 147.966 79.3737 147.672 79.4057 147.342C79.4337 147.07 79.4497 146.794 79.4557 146.522C79.4557 146.48 79.4557 146.44 79.4557 146.398C79.4557 145.254 79.1597 144.058 78.6197 143.028C78.4657 142.734 78.5797 142.372 78.8737 142.218C79.1677 142.064 79.5297 142.178 79.6837 142.472C80.3117 143.67 80.6557 145.064 80.6557 146.398C80.6557 146.448 80.6557 146.496 80.6557 146.546C80.6497 146.85 80.6317 147.158 80.5997 147.462C80.5677 147.772 80.3077 148.002 80.0037 148.002ZM149.366 145.368C149.174 145.368 148.988 145.276 148.87 145.108C148.682 144.834 148.752 144.462 149.026 144.274C150.342 143.372 151.626 142.42 152.846 141.444C153.104 141.238 153.482 141.28 153.69 141.538C153.898 141.796 153.856 142.174 153.596 142.382C152.354 143.376 151.044 144.346 149.704 145.266C149.6 145.338 149.482 145.372 149.366 145.372V145.368ZM71.4057 142.314C71.2817 142.314 71.1577 142.276 71.0497 142.198C70.7837 142.002 70.7257 141.626 70.9217 141.36C71.9517 139.962 73.3617 139.192 74.8977 139.192H74.9437C75.1777 139.194 75.4157 139.214 75.6497 139.252C75.9777 139.306 76.1977 139.614 76.1457 139.94C76.0917 140.268 75.7837 140.488 75.4577 140.436C75.2857 140.408 75.1077 140.392 74.9317 140.392H74.9017C73.7577 140.392 72.6897 140.988 71.8937 142.072C71.7757 142.232 71.5937 142.316 71.4097 142.316L71.4057 142.314ZM156.85 139.372C156.69 139.372 156.53 139.308 156.412 139.182C156.186 138.94 156.198 138.56 156.44 138.334C157.602 137.244 158.72 136.106 159.766 134.946C159.988 134.7 160.368 134.68 160.614 134.902C160.86 135.124 160.88 135.504 160.658 135.75C159.59 136.934 158.448 138.098 157.262 139.208C157.146 139.316 156.998 139.37 156.852 139.37L156.85 139.372ZM163.266 132.25C163.14 132.25 163.014 132.21 162.906 132.13C162.642 131.93 162.588 131.554 162.788 131.29C163.632 130.172 164.434 129.01 165.176 127.84C165.354 127.56 165.724 127.476 166.004 127.654C166.284 127.832 166.368 128.202 166.19 128.482C165.432 129.68 164.61 130.866 163.746 132.012C163.628 132.168 163.448 132.25 163.266 132.25Z" fill="#CCD2D6"/>
<path d="M175.492 114.186C176.501 111.938 173.491 108.397 168.769 106.277C164.048 104.157 159.401 104.26 158.392 106.509C157.383 108.757 160.392 112.298 165.114 114.418C169.836 116.538 174.482 116.434 175.492 114.186Z" fill="url(#paint22_linear_1755_3967)"/>
<g opacity="0.5">
<path d="M176.972 120.124C179.527 115.622 179.268 110.651 176.394 109.019C173.52 107.388 169.119 109.714 166.564 114.216C164.009 118.717 164.267 123.689 167.142 125.32C170.016 126.952 174.417 124.625 176.972 120.124Z" fill="#CCD2D6"/>
<path d="M174.347 108.7C175.063 108.7 175.719 108.866 176.297 109.194C179.071 110.768 179.295 115.628 176.799 120.026C174.891 123.386 171.835 125.642 169.191 125.642C168.475 125.642 167.819 125.476 167.241 125.148C164.467 123.574 164.243 118.714 166.739 114.316C168.647 110.956 171.703 108.7 174.347 108.7ZM174.347 108.5C171.701 108.5 168.567 110.692 166.565 114.218C164.009 118.72 164.269 123.692 167.141 125.322C167.763 125.676 168.457 125.842 169.189 125.842C171.835 125.842 174.969 123.65 176.971 120.124C179.527 115.622 179.267 110.65 176.395 109.02C175.773 108.666 175.079 108.5 174.347 108.5Z" fill="#CCD2D6"/>
</g>
<path d="M176.971 120.124C179.526 115.622 179.268 110.651 176.393 109.019C173.519 107.388 169.118 109.714 166.563 114.216C164.008 118.717 164.266 123.689 167.141 125.32C170.015 126.952 174.416 124.625 176.971 120.124Z" fill="url(#paint23_linear_1755_3967)"/>
<path d="M167.713 119.373C172.812 118.487 176.604 115.8 176.182 113.372C175.76 110.944 171.284 109.694 166.185 110.581C161.085 111.467 157.293 114.154 157.715 116.582C158.137 119.01 162.613 120.259 167.713 119.373Z" fill="url(#paint24_linear_1755_3967)"/>
<path d="M71.9779 15.8428H117.008C119.454 15.8428 121.438 17.8268 121.438 20.2728V46.0468C121.438 48.4928 119.454 50.4768 117.008 50.4768H109.834V54.6508C109.834 56.5708 107.566 57.5908 106.128 56.3168L99.5459 50.4768H71.9779C69.5319 50.4768 67.5479 48.4928 67.5479 46.0468V20.2728C67.5479 17.8268 69.5319 15.8428 71.9779 15.8428Z" fill="url(#paint25_linear_1755_3967)"/>
<path d="M86.918 30.6325C86.918 27.7065 87.58 25.4425 88.904 23.8405C90.228 22.2385 92.094 21.4365 94.502 21.4365C96.91 21.4365 98.774 22.2325 100.092 23.8245C101.41 25.4165 102.07 27.6805 102.07 30.6165V34.5865C102.07 37.5025 101.408 39.7605 100.084 41.3625C98.76 42.9645 96.89 43.7665 94.472 43.7665C92.074 43.7665 90.216 42.9705 88.896 41.3785C87.578 39.7865 86.918 37.5225 86.918 34.5865V30.6305V30.6325ZM91.948 35.3505C91.958 36.9125 92.166 38.0605 92.574 38.7905C92.982 39.5225 93.614 39.8885 94.47 39.8885C95.356 39.8885 96.002 39.5125 96.41 38.7605C96.818 38.0085 97.022 36.8225 97.022 35.2005V29.6485C96.992 28.1965 96.78 27.1105 96.388 26.3945C95.996 25.6785 95.366 25.3205 94.5 25.3205C93.614 25.3205 92.968 25.7065 92.56 26.4765C92.152 27.2485 91.948 28.4145 91.948 29.9765V35.3505Z" fill="url(#paint26_linear_1755_3967)"/>
</g>
<defs>
<linearGradient id="paint0_linear_1755_3967" x1="25.64" y1="30.0722" x2="25.64" y2="205.906" gradientUnits="userSpaceOnUse">
<stop stop-color="#CCD2D6" stop-opacity="0.1"/>
<stop offset="1" stop-color="#CCD2D6" stop-opacity="0.25"/>
</linearGradient>
<linearGradient id="paint1_linear_1755_3967" x1="87.3076" y1="30.0719" x2="87.3076" y2="205.906" gradientUnits="userSpaceOnUse">
<stop stop-color="#CCD2D6" stop-opacity="0.1"/>
<stop offset="1" stop-color="#CCD2D6" stop-opacity="0.25"/>
</linearGradient>
<linearGradient id="paint2_linear_1755_3967" x1="100" y1="30.0722" x2="100" y2="205.906" gradientUnits="userSpaceOnUse">
<stop stop-color="#CCD2D6" stop-opacity="0.1"/>
<stop offset="1" stop-color="#CCD2D6" stop-opacity="0.25"/>
</linearGradient>
<linearGradient id="paint3_linear_1755_3967" x1="100" y1="30.0721" x2="100" y2="205.906" gradientUnits="userSpaceOnUse">
<stop stop-color="#CCD2D6" stop-opacity="0.1"/>
<stop offset="1" stop-color="#CCD2D6" stop-opacity="0.25"/>
</linearGradient>
<linearGradient id="paint4_linear_1755_3967" x1="53.7699" y1="30.0723" x2="53.7699" y2="205.906" gradientUnits="userSpaceOnUse">
<stop stop-color="#CCD2D6" stop-opacity="0.1"/>
<stop offset="1" stop-color="#CCD2D6" stop-opacity="0.25"/>
</linearGradient>
<linearGradient id="paint5_linear_1755_3967" x1="107.734" y1="83.9115" x2="134.364" y2="83.9115" gradientUnits="userSpaceOnUse">
<stop stop-color="#CCD2D6" stop-opacity="0.5"/>
<stop offset="1" stop-color="#CCD2D6"/>
</linearGradient>
<linearGradient id="paint6_linear_1755_3967" x1="118.778" y1="76.1514" x2="159.764" y2="76.1514" gradientUnits="userSpaceOnUse">
<stop stop-color="#CCD2D6" stop-opacity="0.5"/>
<stop offset="1" stop-color="#CCD2D6"/>
</linearGradient>
<linearGradient id="paint7_linear_1755_3967" x1="143.246" y1="46.5395" x2="165.1" y2="111.901" gradientUnits="userSpaceOnUse">
<stop stop-color="#CCD2D6" stop-opacity="0.25"/>
<stop offset="1" stop-color="#CCD2D6" stop-opacity="0.5"/>
</linearGradient>
<linearGradient id="paint8_linear_1755_3967" x1="143.183" y1="57.6672" x2="156.663" y2="94.4332" gradientUnits="userSpaceOnUse">
<stop stop-color="#CCD2D6" stop-opacity="0.7"/>
<stop offset="1" stop-color="#CCD2D6"/>
</linearGradient>
<linearGradient id="paint9_linear_1755_3967" x1="142.793" y1="73.272" x2="171.537" y2="73.272" gradientUnits="userSpaceOnUse">
<stop stop-color="#CCD2D6" stop-opacity="0.9"/>
<stop offset="1" stop-color="#CCD2D6"/>
</linearGradient>
<linearGradient id="paint10_linear_1755_3967" x1="142.861" y1="64.6613" x2="145.159" y2="75.2313" gradientUnits="userSpaceOnUse">
<stop stop-color="#CCD2D6" stop-opacity="0.25"/>
<stop offset="1" stop-color="#CCD2D6" stop-opacity="0.5"/>
</linearGradient>
<linearGradient id="paint11_linear_1755_3967" x1="139.891" y1="65.3069" x2="142.189" y2="75.8769" gradientUnits="userSpaceOnUse">
<stop stop-color="#CCD2D6" stop-opacity="0.25"/>
<stop offset="1" stop-color="#CCD2D6" stop-opacity="0.5"/>
</linearGradient>
<linearGradient id="paint12_linear_1755_3967" x1="18.8319" y1="107.235" x2="66.8819" y2="107.235" gradientUnits="userSpaceOnUse">
<stop stop-color="#CCD2D6" stop-opacity="0.5"/>
<stop offset="1" stop-color="#CCD2D6"/>
</linearGradient>
<linearGradient id="paint13_linear_1755_3967" x1="48.2863" y1="97.2687" x2="97.1883" y2="97.2687" gradientUnits="userSpaceOnUse">
<stop stop-color="#CCD2D6" stop-opacity="0.5"/>
<stop offset="1" stop-color="#CCD2D6"/>
</linearGradient>
<linearGradient id="paint14_linear_1755_3967" x1="79.4662" y1="67.8649" x2="101.32" y2="133.227" gradientUnits="userSpaceOnUse">
<stop stop-color="#CCD2D6" stop-opacity="0.25"/>
<stop offset="1" stop-color="#CCD2D6" stop-opacity="0.5"/>
</linearGradient>
<linearGradient id="paint15_linear_1755_3967" x1="79.5301" y1="81.0065" x2="93.0101" y2="117.773" gradientUnits="userSpaceOnUse">
<stop stop-color="#CCD2D6" stop-opacity="0.7"/>
<stop offset="1" stop-color="#CCD2D6"/>
</linearGradient>
<linearGradient id="paint16_linear_1755_3967" x1="76.9415" y1="93.8333" x2="111.235" y2="93.8333" gradientUnits="userSpaceOnUse">
<stop stop-color="#CCD2D6" stop-opacity="0.9"/>
<stop offset="1" stop-color="#CCD2D6"/>
</linearGradient>
<linearGradient id="paint17_linear_1755_3967" x1="77.8156" y1="84.3436" x2="79.9596" y2="105.024" gradientUnits="userSpaceOnUse">
<stop stop-color="#CCD2D6" stop-opacity="0.25"/>
<stop offset="1" stop-color="#CCD2D6" stop-opacity="0.5"/>
</linearGradient>
<linearGradient id="paint18_linear_1755_3967" x1="75.4114" y1="84.5912" x2="77.5554" y2="105.273" gradientUnits="userSpaceOnUse">
<stop stop-color="#CCD2D6" stop-opacity="0.25"/>
<stop offset="1" stop-color="#CCD2D6" stop-opacity="0.5"/>
</linearGradient>
<linearGradient id="paint19_linear_1755_3967" x1="38.0137" y1="153.101" x2="71.7117" y2="153.101" gradientUnits="userSpaceOnUse">
<stop stop-color="#CCD2D6" stop-opacity="0.25"/>
<stop offset="1" stop-color="#CCD2D6" stop-opacity="0.5"/>
</linearGradient>
<linearGradient id="paint20_linear_1755_3967" x1="99.996" y1="137.761" x2="135.668" y2="137.761" gradientUnits="userSpaceOnUse">
<stop stop-color="#CCD2D6" stop-opacity="0.25"/>
<stop offset="1" stop-color="#CCD2D6" stop-opacity="0.5"/>
</linearGradient>
<linearGradient id="paint21_linear_1755_3967" x1="83.1658" y1="162.8" x2="88.6818" y2="197.932" gradientUnits="userSpaceOnUse">
<stop stop-color="#CCD2D6" stop-opacity="0.5"/>
<stop offset="1" stop-color="#CCD2D6"/>
</linearGradient>
<linearGradient id="paint22_linear_1755_3967" x1="158.203" y1="110.338" x2="175.693" y2="110.338" gradientUnits="userSpaceOnUse">
<stop stop-color="#CCD2D6" stop-opacity="0.25"/>
<stop offset="1" stop-color="#CCD2D6" stop-opacity="0.5"/>
</linearGradient>
<linearGradient id="paint23_linear_1755_3967" x1="164.801" y1="117.171" x2="178.727" y2="117.171" gradientUnits="userSpaceOnUse">
<stop stop-color="#CCD2D6" stop-opacity="0.5"/>
<stop offset="1" stop-color="#CCD2D6"/>
</linearGradient>
<linearGradient id="paint24_linear_1755_3967" x1="157.682" y1="114.977" x2="176.212" y2="114.977" gradientUnits="userSpaceOnUse">
<stop stop-color="#CCD2D6" stop-opacity="0.25"/>
<stop offset="1" stop-color="#CCD2D6" stop-opacity="0.5"/>
</linearGradient>
<linearGradient id="paint25_linear_1755_3967" x1="94.4939" y1="23.8948" x2="94.4939" y2="62.1168" gradientUnits="userSpaceOnUse">
<stop stop-color="#CCD2D6" stop-opacity="0.25"/>
<stop offset="1" stop-color="#CCD2D6" stop-opacity="0.5"/>
</linearGradient>
<linearGradient id="paint26_linear_1755_3967" x1="94.494" y1="22.3105" x2="94.494" y2="48.5005" gradientUnits="userSpaceOnUse">
<stop stop-color="#CCD2D6" stop-opacity="0.5"/>
<stop offset="1" stop-color="#CCD2D6"/>
</linearGradient>
<clipPath id="clip0_1755_3967">
<rect width="200" height="200" fill="white"/>
</clipPath>
</defs>
</svg>
