<svg width="34" height="16" viewBox="0 0 34 16" fill="none" xmlns="http://www.w3.org/2000/svg">
<path fill-rule="evenodd" clip-rule="evenodd" d="M18.3579 2.8559L16.055 3.36465V1.44269L18.3579 0.943359V2.8559ZM23.1469 3.92051C22.2478 3.92051 21.6698 4.35389 21.3487 4.65538L21.2294 4.07125H19.211V15.0566L21.5046 14.5573L21.5138 11.891C21.8441 12.136 22.3304 12.4846 23.1377 12.4846C24.78 12.4846 26.2754 11.1279 26.2754 8.14129C26.2663 5.40909 24.7525 3.92051 23.1469 3.92051ZM22.5964 10.4118C22.0551 10.4118 21.734 10.214 21.5138 9.96902L21.5046 6.4737C21.7432 6.20048 22.0735 6.01205 22.5964 6.01205C23.4313 6.01205 24.0093 6.97303 24.0093 8.20723C24.0093 9.46969 23.4405 10.4118 22.5964 10.4118ZM33.5051 8.2355C33.5051 5.82363 32.3675 3.92051 30.1931 3.92051C28.0095 3.92051 26.6884 5.82363 26.6884 8.21666C26.6884 11.0525 28.2481 12.4845 30.4867 12.4845C31.5785 12.4845 32.4042 12.2302 33.0281 11.8722V9.98788C32.4042 10.3082 31.6886 10.5061 30.7803 10.5061C29.8903 10.5061 29.1013 10.1857 29.0004 9.074H33.4868C33.4868 9.02208 33.4901 8.90411 33.4939 8.7682C33.499 8.58354 33.5051 8.36575 33.5051 8.2355ZM28.9728 7.34047C28.9728 6.27586 29.6059 5.83305 30.1839 5.83305C30.7435 5.83305 31.3399 6.27586 31.3399 7.34047H28.9728ZM16.0549 4.08069H18.3577V12.3244H16.0549V4.08069ZM13.4404 4.08068L13.5871 4.77786C14.1284 3.76035 15.2019 3.96762 15.4955 4.08068V6.2476C15.2111 6.14396 14.2936 6.01206 13.7523 6.73751V12.3244H11.4586V4.08068H13.4404ZM8.99969 2.03623L6.76108 2.52614L6.7519 10.0727C6.7519 11.467 7.77029 12.494 9.12814 12.494C9.88046 12.494 10.4309 12.3526 10.7337 12.1831V10.2705C10.4401 10.393 8.99052 10.8264 8.99052 9.43201V6.08742H10.7337V4.08067H8.99052L8.99969 2.03623ZM3.57759 5.96497C3.09134 5.96497 2.79775 6.10629 2.79775 6.47372C2.79775 6.8749 3.30302 7.05138 3.92986 7.27032C4.95177 7.62724 6.29678 8.09701 6.30246 9.83716C6.30246 11.5236 4.99049 12.494 3.08216 12.494C2.29314 12.494 1.43073 12.3338 0.577484 11.957V9.71468C1.34815 10.1481 2.32067 10.4684 3.08216 10.4684C3.59594 10.4684 3.96293 10.3271 3.96293 9.89369C3.96293 9.44931 3.41521 9.24619 2.75395 9.00097C1.74691 8.62752 0.476562 8.15642 0.476562 6.58678C0.476562 4.91919 1.71514 3.92053 3.57759 3.92053C4.33909 3.92053 5.09141 4.04301 5.85291 4.35391V6.56794C5.15563 6.18166 4.27487 5.96497 3.57759 5.96497Z" fill="#6461FC"/>
</svg>
