<svg width="34" height="34" viewBox="0 0 34 34" fill="none" xmlns="http://www.w3.org/2000/svg">
<rect x="0.666667" y="0.666667" width="32.6667" height="32.6667" rx="8.33333" fill="#FDF5F2"/>
<rect x="0.666667" y="0.666667" width="32.6667" height="32.6667" rx="8.33333" stroke="#F9E0D7" stroke-width="0.666667"/>
<path opacity="0.4" d="M20.352 9H13.648C10.736 9 9 10.736 9 13.648V20.344C9 23.264 10.736 25 13.648 25H20.344C23.256 25 24.992 23.264 24.992 20.352V13.648C25 10.736 23.264 9 20.352 9Z" fill="#E68057"/>
<path d="M20.0004 14.8H14.0004C13.8933 14.8 13.8004 14.7071 13.8004 14.6C13.8004 14.4929 13.8933 14.4 14.0004 14.4H20.0004C20.1075 14.4 20.2004 14.4929 20.2004 14.6C20.2004 14.7071 20.1075 14.8 20.0004 14.8Z" fill="#E16635" stroke="#E16635" stroke-width="0.8"/>
<path d="M20.0004 20.0008H14.0004C13.6724 20.0008 13.4004 19.7288 13.4004 19.4008C13.4004 19.0728 13.6724 18.8008 14.0004 18.8008H20.0004C20.3284 18.8008 20.6004 19.0728 20.6004 19.4008C20.6004 19.7288 20.3284 20.0008 20.0004 20.0008Z" fill="#E16635"/>
</svg>
